<svg width="22" height="22" viewBox="0 0 22 22" version="1.1" xmlns="http://www.w3.org/2000/svg" xmlns:xlink="http://www.w3.org/1999/xlink">
<title>Union</title>
<desc>Created using Figma</desc>
<g id="Canvas" transform="translate(23717 32826)">
<g id="Union">
<use xlink:href="#path0_fill" transform="matrix(0.864445 -0.502728 0.518092 0.855325 -23719 -32820.9)" fill="#03CEA4"/>
<mask id="mask0_outline_out">
<rect id="mask0_outline_inv" fill="white" x="-1" y="-1" width="18" height="20" transform="matrix(0.864445 -0.502728 0.518092 0.855325 -23719 -32820.9)"/>
<use xlink:href="#path0_fill" fill="black" transform="matrix(0.864445 -0.502728 0.518092 0.855325 -23719 -32820.9)"/>
</mask>
<g mask="url(#mask0_outline_out)">
<use xlink:href="#path1_stroke_2x" transform="matrix(0.864445 -0.502728 0.518092 0.855325 -23719 -32820.9)" fill="#03CEA4"/>
</g>
</g>
</g>
<defs>
<path id="path0_fill" fill-rule="evenodd" d="M 8.06732 0C 5.98977 0 4.30559 1.66336 4.30559 3.71524L 4.30559 5.05809L 0 5.05809L 0 18.5762L 16.1346 18.5762L 16.1346 5.05809L 11.829 5.05809L 11.829 3.71524C 11.829 1.66336 10.1449 0 8.06732 0ZM 11.3758 5.50571L 11.3758 6.75904L 11.829 6.75904L 11.829 5.50571L 15.6814 5.50571L 15.6814 18.1286L 0.45322 18.1286L 0.45322 5.50571L 4.30559 5.50571L 4.30559 6.75904L 4.75881 6.75904L 4.75881 5.50571L 11.3758 5.50571ZM 11.3758 5.05809L 11.3758 3.71524C 11.3758 1.9106 9.89456 0.447619 8.06732 0.447619C 6.24008 0.447619 4.75881 1.9106 4.75881 3.71524L 4.75881 5.05809L 11.3758 5.05809Z"/>
<path id="path1_stroke_2x" d="M 4.30559 5.05809L 4.30559 5.30809L 4.55559 5.30809L 4.55559 5.05809L 4.30559 5.05809ZM 0 5.05809L 0 4.80809L -0.25 4.80809L -0.25 5.05809L 0 5.05809ZM 0 18.5762L -0.25 18.5762L -0.25 18.8262L 0 18.8262L 0 18.5762ZM 16.1346 18.5762L 16.1346 18.8262L 16.3846 18.8262L 16.3846 18.5762L 16.1346 18.5762ZM 16.1346 5.05809L 16.3846 5.05809L 16.3846 4.80809L 16.1346 4.80809L 16.1346 5.05809ZM 11.829 5.05809L 11.579 5.05809L 11.579 5.30809L 11.829 5.30809L 11.829 5.05809ZM 11.3758 6.75904L 11.1258 6.75904L 11.1258 7.00904L 11.3758 7.00904L 11.3758 6.75904ZM 11.3758 5.50571L 11.6258 5.50571L 11.6258 5.25571L 11.3758 5.25571L 11.3758 5.50571ZM 11.829 6.75904L 11.829 7.00904L 12.079 7.00904L 12.079 6.75904L 11.829 6.75904ZM 11.829 5.50571L 11.829 5.25571L 11.579 5.25571L 11.579 5.50571L 11.829 5.50571ZM 15.6814 5.50571L 15.9314 5.50571L 15.9314 5.25571L 15.6814 5.25571L 15.6814 5.50571ZM 15.6814 18.1286L 15.6814 18.3786L 15.9314 18.3786L 15.9314 18.1286L 15.6814 18.1286ZM 0.45322 18.1286L 0.20322 18.1286L 0.20322 18.3786L 0.45322 18.3786L 0.45322 18.1286ZM 0.45322 5.50571L 0.45322 5.25571L 0.20322 5.25571L 0.20322 5.50571L 0.45322 5.50571ZM 4.30559 5.50571L 4.55559 5.50571L 4.55559 5.25571L 4.30559 5.25571L 4.30559 5.50571ZM 4.30559 6.75904L 4.05559 6.75904L 4.05559 7.00904L 4.30559 7.00904L 4.30559 6.75904ZM 4.75881 6.75904L 4.75881 7.00904L 5.00881 7.00904L 5.00881 6.75904L 4.75881 6.75904ZM 4.75881 5.50571L 4.75881 5.25571L 4.50881 5.25571L 4.50881 5.50571L 4.75881 5.50571ZM 11.3758 5.05809L 11.3758 5.30809L 11.6258 5.30809L 11.6258 5.05809L 11.3758 5.05809ZM 4.75881 5.05809L 4.50881 5.05809L 4.50881 5.30809L 4.75881 5.30809L 4.75881 5.05809ZM 4.55559 3.71524C 4.55559 1.80435 6.1249 0.25 8.06732 0.25L 8.06732 -0.25C 5.85463 -0.25 4.05559 1.52236 4.05559 3.71524L 4.55559 3.71524ZM 4.55559 5.05809L 4.55559 3.71524L 4.05559 3.71524L 4.05559 5.05809L 4.55559 5.05809ZM 11.579 3.71524L 11.579 5.05809L 12.079 5.05809L 12.079 3.71524L 11.579 3.71524ZM 8.06732 0.25C 10.0097 0.25 11.579 1.80435 11.579 3.71524L 12.079 3.71524C 12.079 1.52236 10.28 -0.25 8.06732 -0.25L 8.06732 0.25ZM 11.6258 6.75904L 11.6258 5.50571L 11.1258 5.50571L 11.1258 6.75904L 11.6258 6.75904ZM 11.829 6.50904L 11.3758 6.50904L 11.3758 7.00904L 11.829 7.00904L 11.829 6.50904ZM 11.579 5.50571L 11.579 6.75904L 12.079 6.75904L 12.079 5.50571L 11.579 5.50571ZM 15.6814 5.25571L 11.829 5.25571L 11.829 5.75571L 15.6814 5.75571L 15.6814 5.25571ZM 15.9314 18.1286L 15.9314 5.50571L 15.4314 5.50571L 15.4314 18.1286L 15.9314 18.1286ZM 0.45322 18.3786L 15.6814 18.3786L 15.6814 17.8786L 0.45322 17.8786L 0.45322 18.3786ZM 0.20322 5.50571L 0.20322 18.1286L 0.70322 18.1286L 0.70322 5.50571L 0.20322 5.50571ZM 4.30559 5.25571L 0.45322 5.25571L 0.45322 5.75571L 4.30559 5.75571L 4.30559 5.25571ZM 4.55559 6.75904L 4.55559 5.50571L 4.05559 5.50571L 4.05559 6.75904L 4.55559 6.75904ZM 4.75881 6.50904L 4.30559 6.50904L 4.30559 7.00904L 4.75881 7.00904L 4.75881 6.50904ZM 4.50881 5.50571L 4.50881 6.75904L 5.00881 6.75904L 5.00881 5.50571L 4.50881 5.50571ZM 11.3758 5.25571L 4.75881 5.25571L 4.75881 5.75571L 11.3758 5.75571L 11.3758 5.25571ZM 11.6258 5.05809L 11.6258 3.71524L 11.1258 3.71524L 11.1258 5.05809L 11.6258 5.05809ZM 11.6258 3.71524C 11.6258 1.76961 10.0297 0.197619 8.06732 0.197619L 8.06732 0.697619C 9.75943 0.697619 11.1258 2.05159 11.1258 3.71524L 11.6258 3.71524ZM 8.06732 0.197619C 6.10494 0.197619 4.50881 1.76961 4.50881 3.71524L 5.00881 3.71524C 5.00881 2.05159 6.37521 0.697619 8.06732 0.697619L 8.06732 0.197619ZM 4.50881 3.71524L 4.50881 5.05809L 5.00881 5.05809L 5.00881 3.71524L 4.50881 3.71524ZM 11.3758 4.80809L 4.75881 4.80809L 4.75881 5.30809L 11.3758 5.30809L 11.3758 4.80809ZM 4.30559 4.80809L 0 4.80809L 0 5.30809L 4.30559 5.30809L 4.30559 4.80809ZM -0.25 5.05809L -0.25 18.5762L 0.25 18.5762L 0.25 5.05809L -0.25 5.05809ZM 0 18.8262L 16.1346 18.8262L 16.1346 18.3262L 0 18.3262L 0 18.8262ZM 16.3846 18.5762L 16.3846 5.05809L 15.8846 5.05809L 15.8846 18.5762L 16.3846 18.5762ZM 16.1346 4.80809L 11.829 4.80809L 11.829 5.30809L 16.1346 5.30809L 16.1346 4.80809Z"/>
</defs>
</svg>
