<svg width="165" height="14" viewBox="0 0 165 14" version="1.1" xmlns="http://www.w3.org/2000/svg" xmlns:xlink="http://www.w3.org/1999/xlink">
<title>MYSHOPOVER</title>
<desc>Created using Figma</desc>
<g id="Canvas" transform="translate(23683 32822)">
<g id="MYSHOPOVER">
<use xlink:href="#path0_fill" transform="translate(-23682.9 -32821.6)"/>
<use xlink:href="#path1_fill" transform="translate(-23682.9 -32821.6)"/>
<use xlink:href="#path2_fill" transform="translate(-23682.9 -32821.6)"/>
<use xlink:href="#path3_fill" transform="translate(-23682.9 -32821.6)"/>
<use xlink:href="#path4_fill" transform="translate(-23682.9 -32821.6)"/>
<use xlink:href="#path5_fill" transform="translate(-23682.9 -32821.6)"/>
<use xlink:href="#path6_fill" transform="translate(-23682.9 -32821.6)"/>
<use xlink:href="#path7_fill" transform="translate(-23682.9 -32821.6)"/>
<use xlink:href="#path8_fill" transform="translate(-23682.9 -32821.6)"/>
<use xlink:href="#path9_fill" transform="translate(-23682.9 -32821.6)"/>
</g>
</g>
<defs>
<path id="path0_fill" d="M 11.6854 0.159027L 11.6854 12.6161L 10.946 12.6161L 10.9641 1.71396L 6.16729 10.6725L 5.55417 10.6725L 0.72132 1.78464L 0.739353 12.6161L 0 12.6161L 0 0.159027L 0.649188 0.159027L 5.86073 9.96569L 11.0182 0.159027L 11.6854 0.159027Z"/>
<path id="path1_fill" d="M 23.7106 6.57311L 23.7106 12.6161L 22.9532 12.6161L 22.9532 6.55544L 18.1204 0.159027L 19.004 0.159027L 23.3499 5.93701L 27.6959 0.159027L 28.5434 0.159027L 23.7106 6.57311Z"/>
<path id="path2_fill" d="M 38.9855 12.7752C 38.0238 12.7752 37.0981 12.6515 36.2085 12.4041C 35.3188 12.1449 34.5795 11.7916 33.9904 11.3439L 34.892 9.38259C 36.1183 10.219 37.4948 10.6371 39.0216 10.6371C 39.8151 10.6371 40.4222 10.5134 40.8429 10.2661C 41.2757 10.0069 41.4921 9.65352 41.4921 9.20589C 41.4921 8.80538 41.2938 8.49322 40.897 8.2694C 40.5123 8.04559 39.8211 7.82766 38.8232 7.61562C 37.7052 7.39181 36.8096 7.12087 36.1363 6.80282C 35.4751 6.48477 34.9882 6.09603 34.6756 5.63662C 34.3751 5.16543 34.2248 4.58822 34.2248 3.905C 34.2248 3.15109 34.4352 2.47964 34.856 1.89065C 35.2888 1.30167 35.8899 0.842254 36.6593 0.51242C 37.4287 0.170807 38.3183 0 39.3282 0C 40.2298 0 41.0954 0.129578 41.9249 0.388733C 42.7665 0.647888 43.4337 0.995391 43.9266 1.43124L 43.0249 3.39258C 41.8588 2.55621 40.6326 2.13803 39.3462 2.13803C 38.6129 2.13803 38.0358 2.27939 37.615 2.5621C 37.1943 2.83304 36.9839 3.20999 36.9839 3.69296C 36.9839 3.97567 37.062 4.21127 37.2183 4.39975C 37.3866 4.57644 37.6571 4.73547 38.0298 4.87683C 38.4145 5.01818 38.9555 5.16543 39.6528 5.31857C 41.2878 5.67196 42.4599 6.12548 43.1692 6.67913C 43.8905 7.23278 44.2512 7.99847 44.2512 8.97619C 44.2512 10.1542 43.7883 11.0848 42.8626 11.768C 41.9369 12.4394 40.6446 12.7752 38.9855 12.7752Z"/>
<path id="path3_fill" d="M 62.3449 0.159027L 62.3449 12.6161L 59.5859 12.6161L 59.5859 7.38592L 53.7251 7.38592L 53.7251 12.6161L 50.9661 12.6161L 50.9661 0.159027L 53.7251 0.159027L 53.7251 5.19488L 59.5859 5.19488L 59.5859 0.159027L 62.3449 0.159027Z"/>
<path id="path4_fill" d="M 75.4095 12.7752C 74.1472 12.7752 73.0472 12.516 72.1095 11.9977C 71.1838 11.4676 70.4685 10.7255 69.9636 9.77132C 69.4586 8.80538 69.2062 7.67452 69.2062 6.37875C 69.2062 5.08297 69.4586 3.958 69.9636 3.00384C 70.4685 2.0379 71.1838 1.29578 72.1095 0.777465C 73.0472 0.259155 74.1472 0 75.4095 0C 76.6718 0 77.7658 0.259155 78.6915 0.777465C 79.6293 1.29578 80.3506 2.0379 80.8555 3.00384C 81.3604 3.958 81.6129 5.08297 81.6129 6.37875C 81.6129 7.67452 81.3604 8.80538 80.8555 9.77132C 80.3506 10.7255 79.6293 11.4676 78.6915 11.9977C 77.7658 12.516 76.6718 12.7752 75.4095 12.7752ZM 75.4095 10.6371C 76.4675 10.6371 77.297 10.272 77.8981 9.54162C 78.5112 8.81127 78.8178 7.75698 78.8178 6.37875C 78.8178 5.00051 78.5172 3.95211 77.9161 3.23355C 77.315 2.5032 76.4795 2.13803 75.4095 2.13803C 74.3396 2.13803 73.504 2.5032 72.9029 3.23355C 72.3139 3.95211 72.0193 5.00051 72.0193 6.37875C 72.0193 7.75698 72.3199 8.81127 72.921 9.54162C 73.5221 10.272 74.3516 10.6371 75.4095 10.6371Z"/>
<path id="path5_fill" d="M 88.4494 0.159027L 94.2921 0.159027C 95.6746 0.159027 96.7506 0.500641 97.52 1.18387C 98.2894 1.86709 98.6741 2.82126 98.6741 4.04635C 98.6741 5.27145 98.2894 6.22561 97.52 6.90884C 96.7506 7.59206 95.6746 7.93368 94.2921 7.93368L 91.2625 7.93368L 91.2625 12.6161L 88.4494 12.6161L 88.4494 0.159027ZM 93.9314 5.84866C 95.338 5.84866 96.0413 5.25378 96.0413 4.06402C 96.0413 3.45147 95.8669 2.99795 95.5183 2.70346C 95.1697 2.40896 94.6407 2.26172 93.9314 2.26172L 91.2625 2.26172L 91.2625 5.84866L 93.9314 5.84866Z"/>
<path id="path6_fill" d="M 110.684 12.7575C 109.553 12.7575 108.568 12.5042 107.726 11.9977C 106.897 11.4794 106.253 10.7432 105.797 9.78899C 105.352 8.82305 105.129 7.69219 105.129 6.39642C 105.129 5.08886 105.352 3.958 105.797 3.00384C 106.241 2.0379 106.879 1.30166 107.708 0.795135C 108.55 0.276825 109.541 0.0176696 110.684 0.0176696C 111.826 0.0176696 112.817 0.276825 113.659 0.795135C 114.5 1.30166 115.144 2.03201 115.588 2.98617C 116.033 3.94033 116.256 5.07119 116.256 6.37875C 116.256 7.6863 116.027 8.82305 115.57 9.78899C 115.126 10.7432 114.482 11.4794 113.641 11.9977C 112.811 12.5042 111.826 12.7575 110.684 12.7575ZM 110.684 12.033C 112.198 12.033 113.37 11.5383 114.2 10.5488C 115.029 9.55929 115.444 8.16927 115.444 6.37875C 115.444 4.58822 115.029 3.2041 114.2 2.22638C 113.382 1.23688 112.21 0.742126 110.684 0.742126C 109.181 0.742126 108.015 1.23688 107.185 2.22638C 106.356 3.2041 105.941 4.58822 105.941 6.37875C 105.941 8.16927 106.356 9.55929 107.185 10.5488C 108.015 11.5383 109.181 12.033 110.684 12.033Z"/>
<path id="path7_fill" d="M 133.789 0.159027L 128.307 12.6161L 127.568 12.6161L 122.122 0.159027L 122.897 0.159027L 127.947 11.6796L 132.996 0.159027L 133.789 0.159027Z"/>
<path id="path8_fill" d="M 140.406 0.159027L 148.052 0.159027L 148.052 0.848144L 141.163 0.848144L 141.163 5.95468L 147.691 5.95468L 147.691 6.64379L 141.163 6.64379L 141.163 11.927L 148.052 11.927L 148.052 12.6161L 140.406 12.6161L 140.406 0.159027Z"/>
<path id="path9_fill" d="M 164.934 12.6161L 164.104 12.6161L 161.959 8.62279C 161.646 8.03381 161.285 7.63329 160.877 7.42126C 160.468 7.20922 159.897 7.1032 159.163 7.1032L 156.224 7.1032L 156.224 12.6161L 155.485 12.6161L 155.485 0.159027L 160.39 0.159027C 161.7 0.159027 162.71 0.453522 163.419 1.04251C 164.141 1.61972 164.501 2.47375 164.501 3.60461C 164.501 4.57055 164.207 5.34213 163.618 5.91934C 163.041 6.49654 162.217 6.84405 161.147 6.96185C 161.448 7.05608 161.712 7.21511 161.941 7.43893C 162.181 7.66274 162.409 7.96313 162.626 8.34008L 164.934 12.6161ZM 160.408 6.39642C 162.608 6.39642 163.708 5.45992 163.708 3.58694C 163.708 2.66812 163.437 1.98489 162.896 1.53726C 162.355 1.07785 161.526 0.848144 160.408 0.848144L 156.242 0.848144L 156.242 6.39642L 160.408 6.39642Z"/>
</defs>
</svg>
