<svg width="19" height="20" viewBox="0 0 15 16" fill="none" xmlns="http://www.w3.org/2000/svg">
<path d="M0.9375 13.3848C0.9375 13.9033 1.35645 14.3223 1.875 14.3223H13.125C13.6436 14.3223 14.0625 13.9033 14.0625 13.3848V4.94727H0.9375V13.3848ZM5.625 7.17383C5.625 6.98047 5.7832 6.82227 5.97656 6.82227H9.02344C9.2168 6.82227 9.375 6.98047 9.375 7.17383V7.4082C9.375 7.60156 9.2168 7.75977 9.02344 7.75977H5.97656C5.7832 7.75977 5.625 7.60156 5.625 7.4082V7.17383ZM14.0625 1.19727H0.9375C0.418945 1.19727 0 1.61621 0 2.13477V3.54102C0 3.79883 0.210937 4.00977 0.46875 4.00977H14.5312C14.7891 4.00977 15 3.79883 15 3.54102V2.13477C15 1.61621 14.5811 1.19727 14.0625 1.19727Z"  stroke="#000000c2"/>
</svg>
