<svg width="20" height="20" viewBox="0 0 11 11" fill="none" xmlns="http://www.w3.org/2000/svg">
<g clip-path="url(#clip0)">
<path d="M5.5 1.49023C2.73828 1.49023 0.5 3.30859 0.5 5.55273C0.5 6.52148 0.917969 7.4082 1.61328 8.10547C1.36914 9.08984 0.552734 9.9668 0.542969 9.97656C0.5 10.0215 0.488281 10.0879 0.513672 10.1465C0.539062 10.2051 0.59375 10.2402 0.65625 10.2402C1.95117 10.2402 2.92188 9.61914 3.40234 9.23633C4.04102 9.47656 4.75 9.61523 5.5 9.61523C8.26172 9.61523 10.5 7.79688 10.5 5.55273C10.5 3.30859 8.26172 1.49023 5.5 1.49023Z" fill="#000000c2"/>
</g>
<defs>
<clipPath id="clip0">
<rect width="10" height="10" fill="white" transform="translate(0.5 0.865234)"/>
</clipPath>
</defs>
</svg>
