<svg width="20" height="21" viewBox="0 0 20 21" fill="none" xmlns="http://www.w3.org/2000/svg">
<path d="M17.7929 11.576C17.9529 10.6555 17.9529 9.73499 17.7929 8.77449L19.4737 7.77396C19.5538 7.73394 19.6338 7.6539 19.6738 7.53383C19.7139 7.45379 19.7139 7.33373 19.7139 7.21366C19.2336 5.81293 18.5132 4.57227 17.5127 3.45168C17.4327 3.37164 17.3126 3.33162 17.2326 3.2916C17.1125 3.2916 16.9924 3.2916 16.9124 3.33162L15.2315 4.33215C14.5111 3.73183 13.6707 3.25158 12.7902 2.93141V0.970379C12.7902 0.890337 12.7502 0.770274 12.6702 0.690232C12.5901 0.61019 12.5101 0.530147 12.43 0.490126C10.9493 0.169958 9.46847 0.169958 8.02772 0.490126C7.90765 0.530147 7.82761 0.61019 7.74757 0.690232C7.66753 0.770274 7.66753 0.890337 7.66753 0.970379V2.93141C6.74704 3.25158 5.94662 3.73183 5.22624 4.33215L3.54536 3.33162C3.42529 3.2916 3.30523 3.2916 3.22519 3.2916C3.10513 3.33162 3.02508 3.37164 2.94504 3.45168C1.90449 4.57227 1.18411 5.81293 0.743883 7.21366C0.703862 7.33373 0.703862 7.45379 0.743883 7.53383C0.783904 7.6539 0.863946 7.73394 0.984009 7.77396L2.66489 8.77449C2.50481 9.73499 2.50481 10.6555 2.66489 11.576L0.984009 12.5765C0.863946 12.6565 0.783904 12.7366 0.743883 12.8166C0.703862 12.9367 0.703862 13.0567 0.743883 13.1368C1.18411 14.5775 1.90449 15.8182 2.94504 16.8988C3.02508 16.9788 3.10513 17.0588 3.22519 17.0588C3.30523 17.0989 3.42529 17.0989 3.54536 17.0188L5.22624 16.0183C5.94662 16.6586 6.74704 17.0989 7.66753 17.419V19.3801C7.66753 19.5001 7.66753 19.6202 7.74757 19.7002C7.82761 19.7803 7.90765 19.8603 8.02772 19.8603C9.46847 20.1805 10.9493 20.1805 12.43 19.8603C12.5101 19.8603 12.5901 19.7803 12.6702 19.7002C12.7502 19.6202 12.7902 19.5001 12.7902 19.3801V17.419C13.6707 17.0989 14.5111 16.6586 15.2315 16.0183L16.9124 17.0188C16.9924 17.0989 17.1125 17.0989 17.2326 17.0588C17.3126 17.0588 17.4327 16.9788 17.5127 16.8988C18.5132 15.8182 19.2336 14.5775 19.7139 13.1368C19.7139 13.0567 19.7139 12.9367 19.6738 12.8166C19.6338 12.7366 19.5538 12.6565 19.4737 12.5765L17.7929 11.576ZM13.4306 10.1752C13.4306 11.0557 13.1104 11.8161 12.4701 12.4564C11.8297 13.0968 11.1093 13.3769 10.2289 13.3769C9.34841 13.3769 8.58801 13.0968 7.94767 12.4564C7.30734 11.8161 7.02719 11.0557 7.02719 10.1752C7.02719 9.29476 7.30734 8.57438 7.94767 7.93404C8.58801 7.29371 9.34841 6.97354 10.2289 6.97354C11.1093 6.97354 11.8297 7.29371 12.4701 7.93404C13.1104 8.57438 13.4306 9.29476 13.4306 10.1752Z" fill="white"/>
</svg>
