<svg width="15" height="15" viewBox="0 0 11 11" fill="none" xmlns="http://www.w3.org/2000/svg">
<g clip-path="url(#clip0)">
<path d="M10.2246 3.51563L9.32424 4.41603C9.23245 4.50782 9.08401 4.50782 8.99221 4.41603L6.82424 2.24805C6.73245 2.15625 6.73245 2.00782 6.82424 1.91602L7.72464 1.01563C8.08987 0.65039 8.68362 0.65039 9.05081 1.01563L10.2246 2.18946C10.5918 2.55469 10.5918 3.14844 10.2246 3.51563ZM6.05081 2.68946L0.921901 7.81838L0.507838 10.1914C0.451197 10.5117 0.730494 10.7891 1.05081 10.7344L3.42385 10.3184L8.55276 5.18947C8.64456 5.09767 8.64456 4.94923 8.55276 4.85743L6.38479 2.68946C6.29104 2.59766 6.1426 2.59766 6.05081 2.68946ZM2.92385 7.37893C2.81643 7.2715 2.81643 7.09963 2.92385 6.99221L5.93167 3.98438C6.03909 3.87696 6.21096 3.87696 6.31839 3.98438C6.42581 4.09181 6.42581 4.26368 6.31839 4.3711L3.31057 7.37893C3.20315 7.48635 3.03128 7.48635 2.92385 7.37893ZM2.21878 9.02151H3.15628V9.73049L1.89651 9.9512L1.28909 9.34377L1.50979 8.08401H2.21878V9.02151Z" fill="#5649CF"/>
</g>
<defs>
<clipPath id="clip0">
<rect width="10" height="10" fill="white" transform="translate(0.5 0.740234)"/>
</clipPath>
</defs>
</svg>
