<svg width="15" height="14" viewBox="0 0 15 14" fill="none" xmlns="http://www.w3.org/2000/svg">
<g clip-path="url(#clip0)">
<path d="M14.8269 6.03206C13.3586 3.54034 10.6201 1.875 7.50001 1.875C4.37866 1.875 1.64074 3.54151 0.173085 6.03206C0.0597646 6.22435 0 6.44348 0 6.66668C0 6.88988 0.0597646 7.10901 0.173085 7.3013C1.64144 9.793 4.37996 11.4583 7.50001 11.4583C10.6214 11.4583 13.3593 9.79182 14.8269 7.30128C14.9403 7.10899 15 6.88986 15 6.66667C15 6.44347 14.9403 6.22435 14.8269 6.03206V6.03206ZM7.50001 10.2083C5.54267 10.2083 3.95835 8.6243 3.95835 6.66667C3.95835 4.70932 5.54236 3.125 7.50001 3.125C9.45736 3.125 11.0417 4.70901 11.0417 6.66667C11.0417 8.62401 9.45767 10.2083 7.50001 10.2083ZM10.2083 6.66667C10.2083 8.16245 8.99579 9.375 7.50001 9.375C6.00423 9.375 4.79168 8.16245 4.79168 6.66667C4.79168 6.20552 4.90707 5.77138 5.11032 5.39133L5.1103 5.39216C5.1103 6.00807 5.6096 6.50734 6.22551 6.50734C6.84142 6.50734 7.34072 6.00805 7.34072 5.39216C7.34072 4.77625 6.84142 4.27695 6.22551 4.27695L6.22467 4.27698C6.60473 4.07372 7.03887 3.95833 7.50001 3.95833C8.99579 3.95833 10.2083 5.17089 10.2083 6.66667Z" fill="#5649CF"/>
</g>
<defs>
<clipPath id="clip0">
<rect width="15" height="13.3333" fill="white"/>
</clipPath>
</defs>
</svg>
