<svg width="20" height="20" viewBox="0 0 11 11" fill="none" xmlns="http://www.w3.org/2000/svg">
<g clip-path="url(#clip0)">
<path d="M0.5 9.89473L2.33676 10.4889L2.98842 9.83109L1.75607 8.58718L0.5 9.89473ZM2.79063 5.44142C2.69385 5.52763 2.6237 5.64012 2.58853 5.76547C2.55336 5.89082 2.55466 6.02373 2.59228 6.14836L2.83217 6.94305L1.89596 7.88823L3.66489 9.67375L4.59982 8.73005L5.38548 8.97275C5.63787 9.05068 5.91213 8.97256 6.08677 8.77273L6.74026 8.00011L3.55386 4.78384L2.79063 5.44142ZM10.2044 2.45968L9.04265 1.28703C8.66599 0.906841 8.0614 0.88773 7.66177 1.24342L4.00276 4.39698L7.12353 7.54719L10.2476 3.8537C10.6002 3.45032 10.5813 2.84005 10.2044 2.45968Z" fill="#000000c2"/>
</g>
<defs>
<clipPath id="clip0">
<rect width="10" height="9.5" fill="white" transform="translate(0.5 0.990234)"/>
</clipPath>
</defs>
</svg>
