<svg width="126" height="47" viewBox="0 0 126 47" fill="none" xmlns="http://www.w3.org/2000/svg">
<path fill-rule="evenodd" clip-rule="evenodd" d="M26.0536 30.1506C26.0536 35.5797 23.6176 38.3854 18.7454 38.5676C13.8826 38.3805 11.4512 35.5751 11.4512 30.1511V20.9034H21.8119V12.8209H11.4512V0.267212H0.703164L0.703125 12.8209L0.703164 20.9034V30.3231C0.703164 35.7115 2.10757 39.7814 4.91639 42.5329C7.7252 45.227 12.0817 46.5741 17.986 46.5741C18.0829 46.5741 18.2135 46.5741 18.3765 46.5707C18.5097 46.5721 18.6434 46.5728 18.7775 46.5728C18.9065 46.5728 19.0349 46.5721 19.163 46.5708C19.3099 46.5736 19.4289 46.5736 19.5188 46.5736C25.4231 46.5736 29.7796 45.2265 32.5884 42.5323C35.3972 39.7808 36.8016 35.7109 36.8016 30.3226V23.8678L36.8016 12.8341L26.0536 12.8341V23.8678V30.1506ZM25.9182 0.267212H36.8516V8.59588H25.9182V0.267212Z" fill="#5649CF"/>
<path d="M63.6621 33.6103C64.2355 33.6103 64.759 33.5729 65.2326 33.4981L65.1578 34.9565C64.6343 35.0312 64.0734 35.0686 63.4752 35.0686C61.6056 35.0686 60.1597 34.5327 59.1377 33.4608C58.1405 32.3639 57.642 30.9056 57.642 29.0858V18.0925H54.0149V16.7463H57.642V11.1001H59.2124V16.7463H64.6717V18.0925H59.2124V28.7493C59.2124 30.3447 59.5864 31.5537 60.3342 32.3764C61.0821 33.199 62.1914 33.6103 63.6621 33.6103Z" fill="#5649CF"/>
<path d="M75.6446 16.2976C79.7827 16.2976 81.8518 18.5287 81.8518 22.9909V34.8443H80.2439V31.5164C79.6955 32.6631 78.8978 33.548 77.8508 34.1712C76.8287 34.7944 75.6571 35.106 74.3359 35.106C73.1892 35.106 72.1298 34.8692 71.1576 34.3956C70.2103 33.9219 69.45 33.2738 68.8766 32.4512C68.3282 31.6036 68.054 30.6813 68.054 29.6841C68.054 28.338 68.403 27.3035 69.101 26.5806C69.8239 25.8327 70.9955 25.2967 72.6159 24.9727C74.2611 24.6486 76.5545 24.4866 79.4961 24.4866H80.2439V22.9161C80.2439 21.1462 79.8949 19.8624 79.1969 19.0647C78.4989 18.242 77.3896 17.8307 75.869 17.8307C74.6974 17.8307 73.613 17.9928 72.6159 18.3168C71.6437 18.616 70.6216 19.1145 69.5497 19.8125L68.8018 18.4664C69.7242 17.7933 70.7836 17.2698 71.9802 16.8959C73.2017 16.4971 74.4232 16.2976 75.6446 16.2976ZM74.3359 33.5355C75.4577 33.5355 76.4673 33.2738 77.3647 32.7503C78.2621 32.2019 78.9601 31.454 79.4587 30.5068C79.9822 29.5595 80.2439 28.4876 80.2439 27.291V25.9449H79.5335C76.916 25.9449 74.9217 26.0571 73.5507 26.2814C72.1796 26.4808 71.2199 26.8423 70.6715 27.3658C70.123 27.8644 69.8488 28.6122 69.8488 29.6093C69.8488 30.756 70.2726 31.7033 71.1202 32.4512C71.9677 33.1741 73.0396 33.5355 74.3359 33.5355Z" fill="#5649CF"/>
<path d="M103.071 16.7463V33.9843C103.071 36.5768 102.461 38.5337 101.239 39.8549C100.018 41.1761 98.1979 41.8367 95.7799 41.8367C92.7636 41.8367 90.2084 40.9766 88.1144 39.2566L88.8623 37.9478C90.1087 38.8453 91.2305 39.456 92.2276 39.7801C93.2247 40.1291 94.4213 40.3036 95.8173 40.3036C97.6869 40.3036 99.1078 39.7801 100.08 38.7331C101.052 37.711 101.538 36.2029 101.538 34.2086V30.2824C101.015 31.5787 100.192 32.5758 99.0704 33.2738C97.9736 33.9469 96.6399 34.2834 95.0694 34.2834C93.474 34.2834 92.0531 33.9095 90.8067 33.1616C89.5852 32.4138 88.6255 31.3543 87.9275 29.9833C87.2544 28.6122 86.9179 27.0417 86.9179 25.2718C86.9179 23.5019 87.2544 21.9439 87.9275 20.5978C88.6255 19.2267 89.5852 18.1673 90.8067 17.4194C92.0531 16.6716 93.474 16.2976 95.0694 16.2976C96.615 16.2976 97.9362 16.6342 99.033 17.3072C100.13 17.9803 100.952 18.94 101.501 20.1865V16.7463H103.071ZM95.0694 32.7503C97.0886 32.7503 98.6591 32.0897 99.7809 30.7685C100.928 29.4224 101.501 27.5902 101.501 25.2718C101.501 22.9535 100.928 21.1337 99.7809 19.8125C98.6591 18.4913 97.0886 17.8307 95.0694 17.8307C93.0752 17.8307 91.4922 18.4913 90.3206 19.8125C89.1739 21.1337 88.6005 22.9535 88.6005 25.2718C88.6005 27.6151 89.1739 29.4473 90.3206 30.7685C91.4922 32.0897 93.0752 32.7503 95.0694 32.7503Z" fill="#5649CF"/>
<path d="M109.441 16.7463H111.011V34.8443H109.441V16.7463ZM111.422 9.34265V11.6984H109.029V9.34265H111.422Z" fill="#5649CF"/>
<path d="M124.133 33.6103C124.706 33.6103 125.23 33.5729 125.703 33.4981L125.628 34.9565C125.105 35.0312 124.544 35.0686 123.946 35.0686C122.076 35.0686 120.63 34.5327 119.608 33.4608C118.611 32.3639 118.112 30.9056 118.112 29.0858V18.0925H114.485V16.7463H118.112V11.1001H119.683V16.7463H125.142V18.0925H119.683V28.7493C119.683 30.3447 120.057 31.5537 120.805 32.3764C121.553 33.199 122.662 33.6103 124.133 33.6103Z" fill="#5649CF"/>
</svg>
