<svg width="81" height="30" viewBox="0 0 81 30" fill="none" xmlns="http://www.w3.org/2000/svg">
<path fillRule="evenodd" clipRule="evenodd" d="M16.9274 19.3926C16.9274 22.867 15.3685 24.6627 12.2507 24.7795C9.13817 24.66 7.58188 22.8644 7.58188 19.3929V13.4744H14.2127V8.30157H7.58188V0.267212H0.70315L0.703125 8.30157L0.70315 13.4744V19.503C0.70315 22.9515 1.60197 25.5563 3.39961 27.3172C5.19725 29.0415 7.98544 29.9036 11.7642 29.9036C11.8263 29.9036 11.9101 29.9036 12.0147 29.9014C12.0997 29.9023 12.1851 29.9027 12.2708 29.9027C12.3527 29.9027 12.4343 29.9023 12.5157 29.9015C12.6106 29.9033 12.6873 29.9033 12.7452 29.9033C16.5239 29.9033 19.312 29.0412 21.1097 27.3169C22.9073 25.556 23.8062 22.9512 23.8062 19.5027V15.3716L23.8061 8.31006L16.9274 8.31002V15.3716V19.3926ZM16.8408 0.267212H23.8381V5.59756H16.8408V0.267212Z" fill="#5649CF"/>
<path d="M40.9969 21.6068C41.3638 21.6068 41.6989 21.5828 42.002 21.535L41.9541 22.4683C41.6191 22.5161 41.2601 22.5401 40.8772 22.5401C39.6807 22.5401 38.7553 22.1971 38.1012 21.511C37.4631 20.809 37.144 19.8757 37.144 18.7111V11.6753H34.8227V10.8138H37.144V7.2002H38.1491V10.8138H41.643V11.6753H38.1491V18.4957C38.1491 19.5168 38.3884 20.2905 38.867 20.817C39.3456 21.3435 40.0556 21.6068 40.9969 21.6068Z" fill="#5649CF"/>
<path d="M48.6657 10.5266C51.3141 10.5266 52.6383 11.9545 52.6383 14.8103V22.3965H51.6092V20.2666C51.2582 21.0005 50.7477 21.5669 50.0776 21.9657C49.4235 22.3646 48.6737 22.564 47.8281 22.564C47.0942 22.564 46.4162 22.4124 45.794 22.1093C45.1877 21.8062 44.7011 21.3914 44.3342 20.8649C43.9832 20.3224 43.8077 19.7321 43.8077 19.094C43.8077 18.2325 44.031 17.5704 44.4778 17.1077C44.9404 16.6291 45.6903 16.2861 46.7273 16.0787C47.7803 15.8713 49.248 15.7676 51.1306 15.7676H51.6092V14.7624C51.6092 13.6297 51.3859 12.8081 50.9392 12.2975C50.4924 11.7711 49.7825 11.5078 48.8093 11.5078C48.0594 11.5078 47.3654 11.6115 46.7273 11.8189C46.1051 12.0104 45.451 12.3294 44.7649 12.7762L44.2863 11.9146C44.8766 11.4839 45.5547 11.1488 46.3205 10.9095C47.1022 10.6543 47.884 10.5266 48.6657 10.5266ZM47.8281 21.5589C48.546 21.5589 49.1922 21.3914 49.7665 21.0563C50.3409 20.7053 50.7876 20.2267 51.1067 19.6205C51.4417 19.0142 51.6092 18.3282 51.6092 17.5624V16.7009H51.1545C49.4794 16.7009 48.203 16.7727 47.3256 16.9162C46.4481 17.0439 45.8339 17.2752 45.4829 17.6103C45.1319 17.9293 44.9564 18.408 44.9564 19.0461C44.9564 19.78 45.2276 20.3863 45.77 20.8649C46.3125 21.3276 46.9985 21.5589 47.8281 21.5589Z" fill="#5649CF"/>
<path d="M66.2188 10.8138V21.8461C66.2188 23.5053 65.8279 24.7577 65.0462 25.6033C64.2644 26.4488 63.0998 26.8716 61.5522 26.8716C59.6218 26.8716 57.9865 26.3212 56.6464 25.2204L57.125 24.3828C57.9227 24.9571 58.6406 25.348 59.2788 25.5554C59.917 25.7787 60.6828 25.8904 61.5762 25.8904C62.7727 25.8904 63.6821 25.5554 64.3043 24.8853C64.9265 24.2312 65.2376 23.266 65.2376 21.9896V19.4769C64.9026 20.3065 64.3761 20.9447 63.6582 21.3914C62.9562 21.8221 62.1027 22.0375 61.0976 22.0375C60.0765 22.0375 59.1671 21.7982 58.3694 21.3196C57.5877 20.841 56.9734 20.1629 56.5267 19.2854C56.096 18.408 55.8806 17.4028 55.8806 16.2701C55.8806 15.1374 56.096 14.1402 56.5267 13.2787C56.9734 12.4012 57.5877 11.7232 58.3694 11.2446C59.1671 10.7659 60.0765 10.5266 61.0976 10.5266C62.0867 10.5266 62.9323 10.742 63.6343 11.1728C64.3362 11.6035 64.8627 12.2178 65.2137 13.0155V10.8138H66.2188ZM61.0976 21.0563C62.3898 21.0563 63.3949 20.6336 64.1129 19.788C64.8468 18.9265 65.2137 17.7538 65.2137 16.2701C65.2137 14.7864 64.8468 13.6217 64.1129 12.7762C63.3949 11.9306 62.3898 11.5078 61.0976 11.5078C59.8212 11.5078 58.8081 11.9306 58.0583 12.7762C57.3244 13.6217 56.9575 14.7864 56.9575 16.2701C56.9575 17.7698 57.3244 18.9424 58.0583 19.788C58.8081 20.6336 59.8212 21.0563 61.0976 21.0563Z" fill="#5649CF"/>
<path d="M70.2952 10.8138H71.3003V22.3965H70.2952V10.8138ZM71.5635 6.07544V7.5831H70.0319V6.07544H71.5635Z" fill="#5649CF"/>
<path d="M79.698 21.6068C80.065 21.6068 80.4 21.5828 80.7031 21.535L80.6553 22.4683C80.3202 22.5161 79.9613 22.5401 79.5784 22.5401C78.3818 22.5401 77.4565 22.1971 76.8024 21.511C76.1642 20.809 75.8451 19.8757 75.8451 18.7111V11.6753H73.5238V10.8138H75.8451V7.2002H76.8502V10.8138H80.3442V11.6753H76.8502V18.4957C76.8502 19.5168 77.0895 20.2905 77.5682 20.817C78.0468 21.3435 78.7567 21.6068 79.698 21.6068Z" fill="#5649CF"/>
</svg>
