<svg width="37" height="47" viewBox="0 0 37 47" fill="none" xmlns="http://www.w3.org/2000/svg">
<path fill-rule="evenodd" clip-rule="evenodd" d="M26.0536 30.1506C26.0536 35.5797 23.6176 38.3854 18.7454 38.5676C13.8826 38.3805 11.4512 35.5751 11.4512 30.1511V20.9034H21.8119V12.8209H11.4512V0.267212H0.703164L0.703125 12.8209L0.703164 20.9034V30.3231C0.703164 35.7115 2.10757 39.7814 4.91639 42.5329C7.7252 45.227 12.0817 46.5741 17.986 46.5741C18.0829 46.5741 18.2135 46.5741 18.3765 46.5707C18.5097 46.5721 18.6434 46.5728 18.7775 46.5728C18.9065 46.5728 19.0349 46.5721 19.163 46.5708C19.3099 46.5736 19.4289 46.5736 19.5188 46.5736C25.4231 46.5736 29.7796 45.2265 32.5884 42.5323C35.3972 39.7808 36.8016 35.7109 36.8016 30.3226V23.8678L36.8016 12.8341L26.0536 12.8341V23.8678V30.1506ZM25.9182 0.267212H36.8516V8.59588H25.9182V0.267212Z" fill="#5649CF"/>
</svg>
