<svg width="17" height="15" viewBox="0 0 11 9" fill="none" xmlns="http://www.w3.org/2000/svg">
<g clip-path="url(#clip0)">
<path d="M3.5 4.37012C4.46719 4.37012 5.25 3.5873 5.25 2.62012C5.25 1.65293 4.46719 0.870117 3.5 0.870117C2.53281 0.870117 1.75 1.65293 1.75 2.62012C1.75 3.5873 2.53281 4.37012 3.5 4.37012ZM4.7 4.87012H4.57031C4.24531 5.02637 3.88438 5.12012 3.5 5.12012C3.11562 5.12012 2.75625 5.02637 2.42969 4.87012H2.3C1.30625 4.87012 0.5 5.67637 0.5 6.67012V7.12012C0.5 7.53418 0.835938 7.87012 1.25 7.87012H5.75C6.16406 7.87012 6.5 7.53418 6.5 7.12012V6.67012C6.5 5.67637 5.69375 4.87012 4.7 4.87012ZM8 4.37012C8.82812 4.37012 9.5 3.69824 9.5 2.87012C9.5 2.04199 8.82812 1.37012 8 1.37012C7.17188 1.37012 6.5 2.04199 6.5 2.87012C6.5 3.69824 7.17188 4.37012 8 4.37012ZM8.75 4.87012H8.69063C8.47344 4.94512 8.24375 4.99512 8 4.99512C7.75625 4.99512 7.52656 4.94512 7.30937 4.87012H7.25C6.93125 4.87012 6.6375 4.9623 6.37969 5.11074C6.76094 5.52168 7 6.06699 7 6.67012V7.27012C7 7.30449 6.99219 7.3373 6.99062 7.37012H9.75C10.1641 7.37012 10.5 7.03418 10.5 6.62012C10.5 5.65293 9.71719 4.87012 8.75 4.87012Z" fill="#5649CF"/>
</g>
<defs>
<clipPath id="clip0">
<rect width="10" height="8" fill="white" transform="translate(0.5 0.370117)"/>
</clipPath>
</defs>
</svg>
