<svg width="10" height="13" viewBox="0 0 10 13" fill="none" xmlns="http://www.w3.org/2000/svg">
<path d="M8.69531 0.25C8.83594 0.25 8.97656 0.320313 9.09375 0.414063C9.1875 0.53125 9.25781 0.671875 9.25781 0.8125V1.1875C9.25781 1.35156 9.1875 1.49219 9.09375 1.58594C8.97656 1.70313 8.83594 1.75 8.69531 1.75C8.69531 2.80469 8.41406 3.74219 7.89844 4.58594C7.35938 5.42969 6.67969 5.96875 5.85938 6.25C6.67969 6.53125 7.35938 7.09375 7.89844 7.9375C8.41406 8.78125 8.69531 9.71875 8.69531 10.75C8.83594 10.75 8.97656 10.8203 9.09375 10.9141C9.1875 11.0313 9.25781 11.1719 9.25781 11.3125V11.6875C9.25781 11.8516 9.1875 11.9922 9.09375 12.0859C8.97656 12.2031 8.83594 12.25 8.69531 12.25H0.820313C0.65625 12.25 0.515625 12.2031 0.421875 12.0859C0.304688 11.9922 0.257812 11.8516 0.257812 11.6875V11.3125C0.257812 11.1719 0.304688 11.0313 0.421875 10.9141C0.515625 10.8203 0.65625 10.75 0.820313 10.75C0.820313 9.71875 1.07813 8.78125 1.61719 7.9375C2.13281 7.09375 2.8125 6.53125 3.65625 6.25C2.8125 5.96875 2.13281 5.42969 1.61719 4.58594C1.07813 3.74219 0.820313 2.80469 0.820313 1.75C0.65625 1.75 0.515625 1.70313 0.421875 1.58594C0.304688 1.49219 0.257812 1.35156 0.257812 1.1875V0.8125C0.257812 0.671875 0.304688 0.53125 0.421875 0.414063C0.515625 0.320313 0.65625 0.25 0.820313 0.25H8.69531ZM6.9375 9.25C6.72656 8.6875 6.42188 8.24219 6.04688 7.89063C5.64844 7.5625 5.22656 7.375 4.75781 7.375C4.28906 7.375 3.84375 7.5625 3.46875 7.89063C3.07031 8.24219 2.76563 8.6875 2.57813 9.25H6.9375ZM6.9375 3.25C7.10156 2.78125 7.19531 2.28906 7.19531 1.75H2.32031C2.32031 2.28906 2.39063 2.78125 2.57813 3.25H6.9375Z" fill="#5649CF"/>
</svg>
