<svg width="15" height="20" viewBox="0 0 17 22" fill="none" xmlns="http://www.w3.org/2000/svg">
<path d="M15.9699 1.33287L15.9352 1.28949L15.8918 1.25478C15.6607 1.06988 15.3282 0.883789 14.9446 0.883789H2.39608C1.98973 0.883789 1.6417 1.05759 1.40763 1.29166C1.11731 1.58198 0.999756 1.93798 0.999756 2.28011V2.87766C0.999756 3.21626 1.09499 3.59344 1.40637 3.86736C1.55068 4.0314 1.72364 4.13545 1.90453 4.1972C1.96893 5.79463 2.40255 7.24263 3.24183 8.55791C3.89293 9.62191 4.70583 10.4116 5.6769 10.9476C4.70256 11.4961 3.89076 12.308 3.24183 13.3685C2.40235 14.6841 1.96825 16.1332 1.90437 17.7041C1.70902 17.7774 1.54008 17.8905 1.40763 18.023C1.11731 18.3133 0.999756 18.6693 0.999756 19.0114V19.609C0.999756 19.9476 1.09499 20.3247 1.40637 20.5987C1.6803 20.9101 2.05747 21.0053 2.39608 21.0053H14.9446C15.2867 21.0053 15.6427 20.8877 15.933 20.5974C16.1671 20.3633 16.3409 20.0153 16.3409 19.609V19.0114C16.3409 18.6278 16.1548 18.2953 15.9699 18.0642L15.9352 18.0208L15.8918 17.9861C15.7669 17.8861 15.6123 17.7858 15.4361 17.7148C15.3687 16.1322 14.9019 14.6827 14.1014 13.3728L14.1015 13.3727L14.0961 13.3643C13.4209 12.3074 12.6034 11.4962 11.6422 10.9476C12.6002 10.4115 13.4186 9.62262 14.0961 8.56212L14.0962 8.56217L14.1014 8.55365C14.9016 7.24427 15.3678 5.79631 15.4359 4.18742C15.6119 4.12217 15.7814 4.01769 15.933 3.8661C16.1671 3.63203 16.3409 3.284 16.3409 2.87766V2.28011C16.3409 1.89647 16.1548 1.564 15.9699 1.33287Z" stroke="#5649CF"/>
</svg>
