<svg width="21" height="21" viewBox="0 0 21 21" fill="none" xmlns="http://www.w3.org/2000/svg">
<path d="M10.6703 1.25879C12.3558 1.25879 13.9647 1.71847 15.4203 2.56123C16.876 3.40398 18.0252 4.55319 18.868 6.00885C19.7107 7.46451 20.1704 9.07341 20.1704 10.7589C20.1704 12.4827 19.7107 14.0533 18.868 15.509C18.0252 16.9646 16.876 18.1522 15.4203 18.9949C13.9647 19.8377 12.3558 20.259 10.6703 20.259C8.94648 20.259 7.37589 19.8377 5.92023 18.9949C4.46456 18.1522 3.27705 16.9646 2.4343 15.509C1.59154 14.0533 1.17017 12.4827 1.17017 10.7589C1.17017 9.07341 1.59154 7.46451 2.4343 6.00885C3.27705 4.55319 4.46456 3.40398 5.92023 2.56123C7.37589 1.71847 8.94648 1.25879 10.6703 1.25879ZM12.8538 14.6662C12.9304 14.7428 13.0453 14.7811 13.1985 14.7428C13.3135 14.7428 13.4284 14.6662 13.505 14.5513L14.5776 13.0956C14.6542 13.019 14.6542 12.9041 14.6542 12.7509C14.6542 12.636 14.5776 12.521 14.501 12.4444L12.0493 10.6823V5.39594C12.0493 5.28102 11.9727 5.1661 11.8961 5.08948C11.8195 5.01287 11.7046 4.93626 11.5897 4.93626H9.75092C9.59769 4.93626 9.48277 5.01287 9.40616 5.08948C9.32955 5.1661 9.29124 5.28102 9.29124 5.39594V11.8315C9.29124 11.9847 9.32955 12.138 9.48277 12.2146L12.8538 14.6662Z" fill="white" stroke="#5649CF"/>
</svg>
