<svg width="13" height="13" viewBox="0 0 13 13" fill="none" xmlns="http://www.w3.org/2000/svg">
<path d="M6.37988 0.515625C7.4444 0.515625 8.46053 0.805948 9.37988 1.33821C10.2992 1.87046 11.025 2.59627 11.5573 3.51562C12.0896 4.43498 12.3799 5.45111 12.3799 6.51562C12.3799 7.60433 12.0896 8.59627 11.5573 9.51562C11.025 10.435 10.2992 11.185 9.37988 11.7172C8.46053 12.2495 7.4444 12.5156 6.37988 12.5156C5.29117 12.5156 4.29924 12.2495 3.37988 11.7172C2.46053 11.185 1.71053 10.435 1.17827 9.51562C0.646012 8.59627 0.379883 7.60433 0.379883 6.51562C0.379883 5.45111 0.646012 4.43498 1.17827 3.51562C1.71053 2.59627 2.46053 1.87046 3.37988 1.33821C4.29924 0.805948 5.29117 0.515625 6.37988 0.515625ZM7.75892 8.98337C7.8073 9.03175 7.87988 9.05595 7.97666 9.03175C8.04924 9.03175 8.12182 8.98337 8.17021 8.91079L8.84762 7.99143C8.89601 7.94304 8.89601 7.87046 8.89601 7.77369C8.89601 7.70111 8.84762 7.62853 8.79924 7.58014L7.25085 6.46724V3.12853C7.25085 3.05595 7.20246 2.98337 7.15408 2.93498C7.10569 2.88659 7.03311 2.83821 6.96053 2.83821H5.79924C5.70246 2.83821 5.62988 2.88659 5.5815 2.93498C5.53311 2.98337 5.50892 3.05595 5.50892 3.12853V7.19304C5.50892 7.28982 5.53311 7.38659 5.62988 7.43498L7.75892 8.98337Z" fill="#5649CF"/>
</svg>
