<svg width="16" height="15" viewBox="0 0 10 9" fill="none" xmlns="http://www.w3.org/2000/svg">
<g clip-path="url(#clip0)">
<path d="M9.6062 4.7992L6.65308 7.75233C6.3894 8.016 5.93237 7.83143 5.93237 7.4535V5.766H3.54175C3.30796 5.766 3.11987 5.57791 3.11987 5.34412V3.65662C3.11987 3.42283 3.30796 3.23475 3.54175 3.23475H5.93237V1.54725C5.93237 1.17108 6.38765 0.984749 6.65308 1.24842L9.6062 4.20155C9.76968 4.36678 9.76968 4.63397 9.6062 4.7992ZM4.24487 7.66444V6.96131C4.24487 6.8453 4.14995 6.75037 4.03394 6.75037H2.55737C2.24624 6.75037 1.99487 6.49901 1.99487 6.18787V2.81287C1.99487 2.50174 2.24624 2.25037 2.55737 2.25037H4.03394C4.14995 2.25037 4.24487 2.15545 4.24487 2.03944V1.33631C4.24487 1.2203 4.14995 1.12537 4.03394 1.12537H2.55737C1.62573 1.12537 0.869873 1.88123 0.869873 2.81287V6.18787C0.869873 7.11951 1.62573 7.87537 2.55737 7.87537H4.03394C4.14995 7.87537 4.24487 7.78045 4.24487 7.66444Z" fill="#5649CF"/>
</g>
<defs>
<clipPath id="clip0">
<rect width="9" height="9" fill="white" transform="translate(0.869873)"/>
</clipPath>
</defs>
</svg>
