<svg width="13" height="13" viewBox="0 0 13 13" fill="none" xmlns="http://www.w3.org/2000/svg">
<path d="M5.52774 1.14934C5.61746 0.969909 5.72961 0.857765 5.90905 0.790479C6.08849 0.745622 6.2455 0.745622 6.42494 0.790479C6.60438 0.857765 6.73895 0.969909 6.82867 1.14934L8.28662 4.10993L11.5614 4.58093C11.7408 4.62579 11.8978 4.7155 12.01 4.85008C12.1221 5.00708 12.167 5.16408 12.167 5.34351C12.167 5.52294 12.0997 5.67994 11.9651 5.81451L9.58755 8.12467L10.1483 11.3993C10.1707 11.5787 10.1259 11.7581 10.0362 11.9151C9.94643 12.0721 9.81185 12.1618 9.63241 12.2067C9.45297 12.2515 9.27353 12.2291 9.11652 12.1394L6.17821 10.6143L3.23989 12.1394C3.06045 12.2291 2.90344 12.2515 2.724 12.2067C2.54456 12.1618 2.38755 12.0721 2.29783 11.9151C2.20811 11.7581 2.16325 11.5787 2.20811 11.3993L2.76886 8.12467L0.391291 5.81451C0.256712 5.67994 0.166992 5.52294 0.166992 5.34351C0.166992 5.16408 0.211852 5.00708 0.324002 4.85008C0.436151 4.7155 0.59316 4.62579 0.79503 4.58093L4.0698 4.10993L5.52774 1.14934Z" fill="#5649CF"/>
</svg>
