<svg width="20" height="20" viewBox="0 0 23 22" fill="none" xmlns="http://www.w3.org/2000/svg">
  <path d="M9.65777 2.18938L9.65643 2.19211L7.34297 6.8902L2.14595 7.63771L2.12718 7.64041L2.10867 7.64453C1.6845 7.73879 1.31787 7.93726 1.04798 8.26113L1.03605 8.27544L1.02523 8.2906C0.774047 8.64225 0.67041 9.00691 0.67041 9.40365C0.67041 9.88209 0.911891 10.2635 1.19069 10.5422L1.19065 10.5423L1.1958 10.5473L4.9696 14.2143L4.08231 19.396C3.97599 19.8478 4.09759 20.2723 4.28769 20.605C4.52771 21.025 4.93213 21.2333 5.31082 21.328C5.74119 21.4356 6.12491 21.3733 6.51551 21.178L6.51554 21.178L6.52226 21.1745L11.1891 18.752L15.8478 21.1703C16.2245 21.3823 16.6529 21.4316 17.0674 21.328C17.4753 21.226 17.8249 21.0044 18.0531 20.605C18.2474 20.265 18.3549 19.8581 18.3021 19.4351L18.3007 19.4239L18.2988 19.4127L17.4086 14.2143L21.1824 10.5473L21.1824 10.5473L21.1875 10.5422C21.4993 10.2305 21.6704 9.84399 21.6704 9.40365C21.6704 9.00691 21.5668 8.64225 21.3156 8.2906L21.3048 8.27544L21.2928 8.26113C21.027 7.94212 20.6662 7.74352 20.2823 7.64755L20.2575 7.64135L20.2323 7.63771L15.0352 6.8902L12.7218 2.19211L12.7218 2.19211L12.7204 2.18939C12.51 1.76855 12.1835 1.49955 11.7759 1.3467L11.7492 1.3367L11.7216 1.32979C11.3429 1.23512 10.9979 1.23512 10.6192 1.32979L10.5916 1.3367L10.5649 1.3467C10.1289 1.51023 9.85406 1.79683 9.65777 2.18938Z" stroke="#5649CF"/>
</svg>
