<svg width="37" height="14" viewBox="0 0 37 14" fill="none" xmlns="http://www.w3.org/2000/svg">
<path fill-rule="evenodd" clip-rule="evenodd" d="M8.07285 9.1824C8.07285 10.7086 7.38801 11.4972 6.01831 11.5483C4.65168 11.4956 3.96836 10.707 3.96836 9.18258V6.5832H6.88058V4.31134H3.96836V0.782715H0.947277L0.947266 4.31134L0.947277 6.5832V9.23092C0.947277 10.7455 1.34203 11.8895 2.13154 12.6629C2.92105 13.4202 4.1456 13.7988 5.80518 13.7988C5.83175 13.7988 5.86735 13.7988 5.91163 13.7979C5.95016 13.7983 5.98884 13.7985 6.02766 13.7985C6.06541 13.7985 6.10304 13.7983 6.14052 13.7979C6.17976 13.7986 6.21169 13.7986 6.23604 13.7986C7.89562 13.7986 9.12016 13.42 9.90967 12.6627C10.6992 11.8893 11.0939 10.7453 11.0939 9.23074V7.41642L11.0939 4.31503L8.07285 4.31502V7.41642V9.1824ZM8.0348 0.782715H11.108V3.12376H8.0348V0.782715Z" fill="#5649CF"/>
<path d="M18.6439 10.155C18.8051 10.155 18.9522 10.1445 19.0854 10.1234L19.0643 10.5333C18.9172 10.5544 18.7595 10.5649 18.5914 10.5649C18.0659 10.5649 17.6595 10.4142 17.3722 10.1129C17.0919 9.80462 16.9518 9.39472 16.9518 8.88321V5.79317H15.9323V5.41479H16.9518V3.82773H17.3932V5.41479H18.9277V5.79317H17.3932V8.78862C17.3932 9.23706 17.4983 9.5769 17.7085 9.80813C17.9187 10.0394 18.2305 10.155 18.6439 10.155Z" fill="#5649CF"/>
<path d="M22.012 5.28867C23.1752 5.28867 23.7567 5.91579 23.7567 7.17002V10.5018H23.3048V9.56639C23.1506 9.88871 22.9264 10.1375 22.6321 10.3126C22.3448 10.4878 22.0155 10.5754 21.6441 10.5754C21.3218 10.5754 21.024 10.5088 20.7508 10.3757C20.4845 10.2426 20.2708 10.0604 20.1096 9.82915C19.9555 9.59091 19.8784 9.33166 19.8784 9.05138C19.8784 8.67301 19.9765 8.38222 20.1727 8.17902C20.3759 7.96881 20.7052 7.81816 21.1607 7.72707C21.6231 7.63598 22.2678 7.59044 23.0946 7.59044H23.3048V7.149C23.3048 6.65151 23.2067 6.29066 23.0105 6.06644C22.8143 5.83521 22.5025 5.71959 22.0751 5.71959C21.7457 5.71959 21.4409 5.76514 21.1607 5.85623C20.8874 5.94031 20.6001 6.08045 20.2988 6.27664L20.0886 5.89827C20.3479 5.70908 20.6457 5.56194 20.982 5.45683C21.3253 5.34472 21.6687 5.28867 22.012 5.28867ZM21.6441 10.1339C21.9595 10.1339 22.2432 10.0604 22.4955 9.91323C22.7477 9.75908 22.9439 9.54887 23.0841 9.28261C23.2312 9.01635 23.3048 8.71505 23.3048 8.37872V8.00034H23.1051C22.3694 8.00034 21.8088 8.03187 21.4234 8.09494C21.038 8.15099 20.7683 8.25259 20.6141 8.39974C20.46 8.53988 20.3829 8.75008 20.3829 9.03036C20.3829 9.35268 20.502 9.61894 20.7403 9.82915C20.9785 10.0323 21.2798 10.1339 21.6441 10.1339Z" fill="#5649CF"/>
<path d="M29.7212 5.41479V10.2601C29.7212 10.9888 29.5495 11.5388 29.2062 11.9102C28.8628 12.2816 28.3513 12.4672 27.6717 12.4672C26.8238 12.4672 26.1056 12.2255 25.517 11.742L25.7273 11.3742C26.0776 11.6264 26.3929 11.7981 26.6732 11.8892C26.9535 11.9873 27.2898 12.0363 27.6822 12.0363C28.2077 12.0363 28.6071 11.8892 28.8804 11.5949C29.1536 11.3076 29.2903 10.8837 29.2903 10.3231V9.21955C29.1431 9.58391 28.9119 9.86418 28.5966 10.0604C28.2883 10.2496 27.9134 10.3442 27.472 10.3442C27.0235 10.3442 26.6241 10.2391 26.2738 10.0288C25.9305 9.81864 25.6607 9.52084 25.4645 9.13546C25.2753 8.75008 25.1807 8.30865 25.1807 7.81116C25.1807 7.31367 25.2753 6.87573 25.4645 6.49736C25.6607 6.11198 25.9305 5.81419 26.2738 5.60398C26.6241 5.39377 27.0235 5.28867 27.472 5.28867C27.9064 5.28867 28.2778 5.38326 28.5861 5.57245C28.8944 5.76164 29.1256 6.0314 29.2798 6.38175V5.41479H29.7212ZM27.472 9.91323C28.0395 9.91323 28.481 9.72755 28.7963 9.35618C29.1186 8.97781 29.2798 8.4628 29.2798 7.81116C29.2798 7.15951 29.1186 6.64801 28.7963 6.27664C28.481 5.90528 28.0395 5.71959 27.472 5.71959C26.9114 5.71959 26.4665 5.90528 26.1372 6.27664C25.8148 6.64801 25.6537 7.15951 25.6537 7.81116C25.6537 8.46981 25.8148 8.98481 26.1372 9.35618C26.4665 9.72755 26.9114 9.91323 27.472 9.91323Z" fill="#5649CF"/>
<path d="M31.5115 5.41479H31.9529V10.5018H31.5115V5.41479ZM32.0685 3.33374V3.99589H31.3959V3.33374H32.0685Z" fill="#5649CF"/>
<path d="M35.6412 10.155C35.8023 10.155 35.9495 10.1445 36.0826 10.1234L36.0616 10.5333C35.9144 10.5544 35.7568 10.5649 35.5886 10.5649C35.0631 10.5649 34.6567 10.4142 34.3694 10.1129C34.0891 9.80462 33.949 9.39472 33.949 8.88321V5.79317H32.9295V5.41479H33.949V3.82773H34.3904V5.41479H35.9249V5.79317H34.3904V8.78862C34.3904 9.23706 34.4955 9.5769 34.7057 9.80813C34.9159 10.0394 35.2277 10.155 35.6412 10.155Z" fill="#5649CF"/>
</svg>
